<?xml version="1.0" encoding="utf-8"?>
<!-- Generator: Adobe Illustrator 19.2.1, SVG Export Plug-In . SVG Version: 6.00 Build 0)  -->
<svg version="1.1" id="Layer_1" xmlns="http://www.w3.org/2000/svg" xmlns:xlink="http://www.w3.org/1999/xlink" x="0px" y="0px"
	 viewBox="0 0 184.3 28.5" style="enable-background:new 0 0 184.3 28.5;" xml:space="preserve" preserveAspectRatio="xMinYMid">
<style type="text/css">
	.st0{fill:#306FB7;}
</style>
<path class="st0" d="M46,0.5L35,18.7V28h-5v-9.2L19,0.4l5.6,0.1l7.9,13.7l7.9-13.7H46z M44.4,28h5V12.7c0-5.3,2.8-8,7.2-8
	c4.5,0,7.3,2.9,7.3,8.2V28h5V12.7c0-8.3-4.8-12.6-12.2-12.6c-7.5,0-12.4,4.3-12.4,12.9V28z M184.3,14.2c0-7.8-5.9-14.2-14.4-14.2
	c-8.5,0-14.4,6.5-14.4,14.3c0,7.8,5.9,14.2,14.4,14.2S184.3,22,184.3,14.2 M179.2,14.3c0,5.4-3.8,9.8-9.3,9.8
	c-5.5,0-9.4-4.4-9.4-9.8c0-5.4,3.8-9.8,9.3-9.8C175.3,4.4,179.2,8.9,179.2,14.3 M140.5,0.1c-7.5,0-12.2,4.3-12.2,12.6V28h5.1V12.9
	c0-5.3,2.8-8.2,7.3-8.2c4.5,0,7.3,2.9,7.3,8.2V28h5.1V12.7c0-8.3-4.8-12.6-12.2-12.6H140.5z M17.9,2.5c-2.4-1.6-5.2-2.4-8.5-2.4
	C3.9,0.1,0,3.3,0,8.1c0,5.1,3.3,6.8,9.2,8.3c5.1,1.2,6.2,2.2,6.2,4.2c0,2.1-1.9,3.5-4.9,3.5c-2.7,0-4.8-0.8-6.9-2.2l-2.2,3.9
	c2.7,1.7,5.8,2.6,9,2.6c5.8,0,9.8-3.1,9.8-8.3c0-4.6-3-6.7-8.8-8.1c-5.3-1.3-6.5-2.2-6.5-4.4c0-1.8,1.7-3.3,4.5-3.3
	c2.1,0,4.2,0.7,6.3,2L17.9,2.5z M119.4,28v-3c-2.5,2.2-5.8,3.5-9.6,3.5c-5.2,0-9.4-2.4-11.9-6c-2.5,3.6-6.7,6-11.9,6
	c-8.5,0-14.4-6.4-14.4-14.2c0-7.8,6-14.3,14.4-14.3c3.5,0,6.6,1.1,9,3c-1,1.3-1.8,2.7-2.5,4.2c-1.7-1.7-3.9-2.8-6.6-2.8
	c-5.5,0-9.3,4.4-9.3,9.8c0,5.4,3.9,9.8,9.4,9.8c5.5,0,9.3-4.4,9.3-9.8h0c0-7.8,6-14.3,14.4-14.3c8.5,0,14.4,6.4,14.4,14.2l0,13.8
	H119.4z M119.2,14.3c0-5.4-3.9-9.8-9.4-9.8c-5.5,0-9.3,4.4-9.3,9.8c0,5.4,3.9,9.8,9.4,9.8C115.4,24.1,119.2,19.7,119.2,14.3"/>
</svg>
